<svg width="535" height="616" viewBox="0 0 535 616" fill="none" xmlns="http://www.w3.org/2000/svg">
<path d="M90.238 523.955L128.445 520.057C128.814 520.019 129.186 520.023 129.554 520.067L360 548H390C392.761 548 395 545.761 395 543V515.095C395 512.497 396.99 510.332 399.578 510.113L450.951 505.766C454.877 505.434 456.92 500.896 454.644 497.68C439.138 475.76 419.718 441.999 436.5 439.5C453.081 437.031 483.067 422.712 500.663 413.42C503.749 411.791 504.172 407.582 501.52 405.315L446.353 358.149C443.885 356.039 444.062 352.162 446.782 350.389C485.188 325.355 519.633 328.823 533.5 314C544.71 302.017 478.377 280.975 440.361 271C438.101 270.407 436.525 268.353 436.864 266.042C442.678 226.325 514.146 120.047 490 135.5C470.89 147.73 396.699 160.934 357.275 166.738C354.409 167.16 351.824 165.046 351.616 162.157L340.762 11.1028C340.479 7.17251 335.595 5.53452 333 8.5C254 86.5 262 155.5 238.5 128C220.976 107.493 167.047 55.8525 137.13 27.7447C134.365 25.1469 129.886 26.4752 129.194 30.2056C120.877 75.0542 131.325 143.131 139.43 180.023C140.282 183.904 136.519 187.252 132.743 186.016C82.1743 169.467 36.4899 166.185 11.7359 166.827C7.40022 166.939 5.64995 172.136 8.8416 175.073C49.7871 212.748 114.564 279.443 100 295.5C87.2496 309.558 49.3588 312.995 22.4733 312.962C17.5731 312.956 15.2103 319.36 19.0586 322.394C36.3587 336.032 60.0508 354.741 71 363.5C88.5 377.5 93 389 90 406C87.9424 417.66 58.053 429.417 37.0681 435.791C33.1336 436.985 32.0998 442.133 35.4512 444.516C63.0602 464.142 84.4651 466.178 95.3355 463.96C98.0057 463.415 100.981 464.495 101.342 467.196C103.061 480.044 93.4783 501.385 85.2414 516.154C83.2088 519.798 86.0867 524.379 90.238 523.955Z" fill="#A9D3E5"/>
<path d="M351 324C354.833 325 364 330.3 370 343.5" stroke="black"/>
<path d="M127.5 471L121.282 405C111.449 407.5 92.982 417.8 97.782 439C102.582 460.2 121.667 470.333 127.5 471Z" fill="#EBDFD4"/>
<path d="M385.5 474.5V406C395.333 408.5 418.3 421.8 413.5 443C408.7 464.2 391.333 473.833 385.5 474.5Z" fill="#EBDFD4"/>
<path d="M242.5 181.5C223.144 180.922 209.404 186.222 201.506 191.219C196.797 194.2 192.545 197.907 188.017 201.156C165.702 217.173 130.596 252.556 127 297.5C123 347.5 122 388 122 402L127 507C129.667 523.833 141 563.2 165 586C189 608.8 206.333 615.5 212 616H268.413C273.447 616 278.458 615.309 283.304 613.946L296.512 610.231C304.083 608.102 311.136 604.417 316.877 599.043C328.521 588.143 345.72 570.486 359.5 551.5C377.5 526.7 385.333 488.833 387 473V362V317.571C387 312.876 386.405 308.197 385.194 303.661C366.865 235.014 364.567 250.288 351 228C339.8 209.6 310.667 194 297.5 188.5C290.333 186.5 269.3 182.3 242.5 181.5Z" fill="#EBDFD4"/>
<path d="M146 405C148.167 407.833 153.5 413.9 157.5 415.5" stroke="#D0BBA9" stroke-width="2" stroke-linecap="round"/>
<path d="M222 412C220.783 415.167 216.678 421.6 210 422" stroke="#D0BBA9" stroke-width="2" stroke-linecap="round"/>
<path d="M273 406C277.333 410.167 287.3 418.6 292.5 419" stroke="#D0BBA9" stroke-width="2" stroke-linecap="round"/>
<path d="M242.5 347L239.5 359.5" stroke="#D0BBA9" stroke-width="2" stroke-linecap="round"/>
<path d="M266 347L267 356" stroke="#D0BBA9" stroke-width="2" stroke-linecap="round"/>
<path d="M231.931 359.609C194.661 359.508 169.574 350.899 156.044 343.281C150.881 340.374 143.618 341.601 141.6 347.172C133.362 369.92 138.992 391.343 144.566 402.511C145.701 404.786 147.923 406.264 150.429 406.689C171.934 410.332 211.848 415.136 226.5 409.5C239.556 404.479 241.615 382.764 240.767 367.511C240.513 362.932 236.516 359.621 231.931 359.609Z" fill="#FAFBF7"/>
<path d="M274.324 358.565C302.975 361.077 338.735 353.371 360.708 346.925C366.269 345.294 372.073 349.011 372.487 354.792C373.442 368.118 373.922 384.854 371.5 390C368.592 396.18 356.93 406.13 349.948 411.522C348.68 412.501 347.174 413.094 345.58 413.249C327.77 414.984 292.537 416.373 276.5 409.5C262.474 403.489 262.11 381.259 264.409 365.741C265.102 361.062 269.612 358.152 274.324 358.565Z" fill="#FAFBF7"/>
<path d="M270 435C270.667 453.333 269.4 490.9 259 494.5C246 499 239 495.5 236 484C233.6 474.8 235 447.5 236 435" stroke="#D0BBA9" stroke-width="2" stroke-linecap="round"/>
<path d="M359 479C363 488 369.8 508.1 365 516.5" stroke="#D0BBA9" stroke-width="2" stroke-linecap="round"/>
<path d="M161 295.5C138.822 295.5 143.495 308.693 152.067 317.435C157.21 322.68 164.823 323.818 172.115 324.713C192.542 327.222 213.948 335.896 230 343.5C242.103 349.233 259.025 347.738 270.214 345.377C275.102 344.345 279.603 342.081 283.744 339.286L331.758 306.887C336.478 303.702 342.042 302 347.736 302C355.567 302 365.258 299.095 365.389 291.266C365.476 286.119 360.892 281.459 345.5 281C312 280 286 309.5 273.5 320C266.187 326.142 253.261 325.173 243.321 322.84C237.045 321.367 230.604 320.275 224.378 318.597C205.074 313.393 183.22 295.5 161 295.5Z" fill="#A9D3E5"/>
<path d="M272 545.5C282.8 542.3 287.167 527.167 288 520L284.5 516.5C269.167 519.167 236 525.3 226 528.5C216 531.7 221.833 541.167 226 545.5C232.333 547.5 246.5 554.9 252.5 568.5C258.5 582.1 268 584.167 272 583.5V545.5Z" fill="#A3FBAC"/>
<circle cx="287" cy="582" r="9" fill="#A3FBAC"/>
<path d="M343 504C300.5 513.667 208.6 533.6 181 536" stroke="#D0BBA9" stroke-width="2" stroke-linecap="round" stroke-linejoin="round"/>
<ellipse cx="235.5" cy="576.5" rx="6.5" ry="7.5" fill="#A3FBAC"/>
<path d="M160.5 521C158.333 529.667 156.5 548.9 166.5 556.5" stroke="#D0BBA9" stroke-width="2" stroke-linecap="round"/>
<ellipse cx="186" cy="364" rx="6" ry="10" fill="black"/>
<ellipse cx="318" cy="366" rx="6" ry="10" fill="black"/>
</svg>
